<svg xmlns="http://www.w3.org/2000/svg" id="svg" width="227.95" height="223.13" viewBox="0 0 227.95 223.13">
    <defs>
        <style>
            .cls-3{fill:#39384f}
        </style>
    </defs>
    <path id="패스_13" fill="#ec4c66" d="M261 187.93l8-45.75-33-11.06a81.681 81.681 0 0 0-4.59-16.05l22.12-26.86-31.07-34.52-29 19.19a80.66 80.66 0 0 0-10-4.49L178.24 34h-46.45l-5.16 34.39a81.9 81.9 0 0 0-15 7.35L81.32 58.61l-28.6 36.61 23.94 25.25a81.829 81.829 0 0 0-3.47 16.34l-32.14 13.33 11.23 45.08 34.64-3.32a82.64 82.64 0 0 0 10.75 12.77l-9.29 33.56 42.44 18.9 18.72-29.36c1.81.12 3.63.2 5.48.2a82.677 82.677 0 0 0 11.19-.78l20.72 28 41-21.81-11.6-32.82a82.622 82.622 0 0 0 9.8-13.5zm-158.59-42.64A52.72 52.72 0 1 1 155.123 198a52.722 52.722 0 0 1-52.713-52.71z" transform="translate(-41.05 -34)"/>
    <path id="패스_14" fill="#4b4b68" d="M253.65 103.42c-4.19-7-26.59-2.67-56.47 9.49a55.711 55.711 0 0 1 5.83 6.17c11.17-3 18.91-3.25 20.93.09 4.47 7.43-21 29.59-57 49.48s-68.71 30-73.19 22.56c-2.27-3.77 3.17-11.31 13.75-20.43a50.3 50.3 0 0 1-2.39-7.43C77.33 183 60.89 200.46 65.24 207.69c6.29 10.44 53.57-4.43 105.6-33.22s89.1-60.61 82.81-71.05z" transform="translate(-41.05 -34)"/>
    <path id="패스_15" d="M120.21 126.67s1.74 7.37 3 9.38c1 1.69 5.39 5.13 5.39 5.13s-4.37 3.44-5.39 5.13c-1.21 2-3 9.37-3 9.37s-1.73-7.36-2.94-9.37c-1-1.69-5.39-5.13-5.39-5.13s4.36-3.44 5.39-5.13c1.21-2.05 2.94-9.38 2.94-9.38z" class="cls-3" transform="translate(-41.05 -34)"/>
    <path id="패스_16" d="M139.65 145.2s1.15 4.76 2 6.06a22.529 22.529 0 0 0 3.6 3.31 22.53 22.53 0 0 0-3.6 3.31c-.82 1.3-2 6.06-2 6.06s-1.16-4.76-2-6.06a22.53 22.53 0 0 0-3.6-3.31 22.53 22.53 0 0 0 3.6-3.31c.84-1.26 2-6.06 2-6.06z" class="cls-3" transform="translate(-41.05 -34)"/>
</svg>
